<?xml version="1.0" standalone="no"?>
<!DOCTYPE svg PUBLIC "-//W3C//DTD SVG 20010904//EN"
 "http://www.w3.org/TR/2001/REC-SVG-20010904/DTD/svg10.dtd">
<svg version="1.0" xmlns="http://www.w3.org/2000/svg"
 width="537.000000pt" height="537.000000pt" viewBox="0 0 537.000000 537.000000"
 preserveAspectRatio="xMidYMid meet">
<metadata>
Created by potrace 1.11, written by Peter Selinger 2001-2013
</metadata>
<g transform="translate(0.000000,537.000000) scale(0.100000,-0.100000)"
fill="#000000" stroke="none">
<path d="M630 4431 c-161 -51 -269 -196 -275 -372 -7 -195 90 -342 265 -402
67 -22 194 -25 228 -4 6 5 12 6 12 3 0 -9 74 26 119 57 62 43 97 83 130 152
103 211 22 445 -188 547 -54 26 -78 31 -150 33 -60 2 -103 -2 -141 -14z"/>
<path d="M507 3534 c-1 -1 -31 -5 -67 -8 -127 -12 -164 -18 -275 -43 -116 -26
-173 -63 -160 -102 7 -23 96 -68 188 -97 l57 -18 1 -140 c1 -249 18 -1275 24
-1521 14 -529 25 -627 78 -653 53 -25 124 -31 386 -29 254 2 279 4 316 22 70
35 90 95 101 300 2 44 6 429 9 855 5 937 11 1129 33 1152 4 3 54 22 112 41
115 38 180 72 180 92 0 40 -116 90 -255 110 -22 3 -51 8 -65 10 -14 3 -46 7
-72 10 -27 3 -69 8 -95 11 -46 6 -490 13 -496 8z m260 -166 c21 -10 32 -43 39
-118 15 -147 21 -1290 9 -1735 -11 -427 -12 -431 -113 -419 -40 5 -51 17 -53
54 0 14 -3 86 -6 160 -8 199 -8 1812 0 1905 11 132 20 162 50 167 25 4 42 1
74 -14z"/>
<path d="M701 3316 c-31 -38 -34 -136 -34 -1116 0 -646 5 -970 16 -1031 5 -29
28 -49 53 -47 20 2 24 8 25 38 0 19 2 44 5 55 21 107 22 1914 0 2020 -12 57
-20 76 -36 85 -13 7 -21 6 -29 -4z"/>
<path d="M1486 3053 c-1 -2 -18 -5 -37 -7 -19 -3 -42 -8 -51 -11 -36 -14 7
-57 104 -105 184 -91 180 -84 184 -330 5 -256 5 -1071 1 -1100 -3 -14 -5 -33
-6 -43 -2 -27 -81 -99 -152 -137 -35 -19 -67 -35 -71 -35 -15 0 -28 -22 -23
-37 12 -30 89 -40 305 -40 205 -1 370 17 385 41 11 19 -48 54 -135 82 -88 27
-149 116 -166 241 -20 149 -30 425 -34 878 -2 263 -5 241 26 205 14 -16 40
-46 58 -65 65 -71 116 -129 446 -515 122 -143 248 -289 279 -325 111 -128 144
-165 150 -170 3 -3 21 -23 40 -45 19 -22 57 -67 85 -100 64 -75 274 -285 285
-285 35 0 41 166 26 670 -10 331 -12 842 -3 902 17 113 116 219 223 235 39 6
65 30 60 55 -5 25 -2 23 -50 34 -60 14 -471 6 -555 -11 -14 -3 -40 -8 -58 -11
-18 -3 -35 -11 -38 -16 -8 -13 26 -48 47 -48 10 0 44 -10 76 -22 77 -28 126
-78 146 -148 21 -73 33 -160 43 -310 10 -164 13 -240 13 -410 -1 -221 -4 -318
-10 -325 -3 -3 -39 32 -80 77 -40 46 -76 85 -79 88 -3 3 -30 34 -60 70 -30 36
-57 67 -60 70 -3 3 -36 41 -74 85 -37 44 -80 94 -95 110 -14 17 -53 61 -86
100 -33 38 -64 75 -70 81 -5 6 -30 35 -55 64 -25 29 -50 58 -55 64 -6 6 -51
58 -100 116 -50 58 -95 110 -101 117 -7 7 -62 71 -125 143 l-113 131 -218 -3
c-121 -1 -220 -4 -222 -5z m1656 -110 c7 -9 7 -21 -2 -42 -20 -49 -60 -52 -93
-6 -17 24 -17 25 3 45 23 23 74 24 92 3z m-1365 -71 c75 -76 216 -228 299
-322 21 -24 48 -54 59 -65 27 -29 125 -141 150 -173 11 -13 31 -36 45 -51 14
-14 54 -60 90 -101 36 -41 67 -77 70 -80 3 -3 43 -50 90 -105 47 -55 87 -102
90 -105 3 -3 41 -48 85 -100 44 -52 84 -100 90 -106 93 -102 209 -253 238
-311 38 -73 -34 -32 -117 67 -16 19 -49 58 -74 85 -25 28 -55 61 -67 75 -26
29 -265 308 -313 366 -49 57 -116 136 -210 244 -46 52 -102 117 -125 144 -23
27 -58 67 -78 90 -20 23 -47 54 -60 70 -13 16 -35 41 -49 56 -46 50 -75 84
-140 165 -35 44 -67 82 -70 85 -11 9 -100 137 -100 144 0 18 27 -2 97 -72z m4
-1514 c21 -40 21 -42 3 -55 -23 -16 -126 -14 -131 3 -5 15 73 94 92 94 8 0 24
-19 36 -42z"/>
<path d="M3737 3054 c-1 -1 -31 -4 -66 -7 -35 -4 -74 -13 -87 -22 -21 -13 -22
-18 -11 -36 13 -22 27 -26 102 -33 80 -7 103 -21 126 -76 22 -53 31 -322 31
-880 0 -494 -5 -577 -37 -626 -26 -40 -102 -76 -187 -89 -71 -11 -41 -58 44
-71 52 -8 508 -12 508 -4 0 3 33 5 73 6 154 1 267 19 267 42 0 10 -68 38 -112
47 -70 13 -82 17 -107 29 -51 27 -87 87 -98 163 -7 44 -7 425 0 553 l3 55 34
2 c359 22 470 -13 525 -166 26 -71 36 -90 62 -106 23 -15 24 -15 37 17 23 55
33 175 30 353 -4 201 -20 308 -47 313 -27 5 -44 -14 -67 -76 -32 -86 -83 -155
-134 -181 -58 -29 -152 -47 -251 -50 -44 -2 -104 -4 -132 -4 -29 -1 -54 3 -56
8 -6 20 0 511 7 565 19 138 64 173 226 175 216 4 450 -88 608 -239 71 -68 99
-84 156 -91 l48 -6 -5 28 c-14 75 -26 107 -119 328 l-34 80 -667 0 c-367 1
-669 0 -670 -1z m1198 -109 c21 -8 39 -25 45 -40 13 -33 13 -32 -5 -39 -18 -6
-42 6 -98 48 -29 21 -35 31 -25 37 19 13 44 11 83 -6z m-1000 -44 c3 -11 8
-30 11 -43 23 -106 14 -1201 -12 -1433 -4 -33 -7 -66 -7 -72 0 -14 -16 -18
-18 -5 0 4 -3 18 -6 32 -3 14 -6 120 -6 235 2 666 2 811 0 1020 -2 222 3 285
23 285 5 0 11 -9 15 -19z m830 -740 c-1 -34 -3 -63 -6 -65 -7 -8 -99 65 -99
79 0 20 81 66 95 55 6 -5 11 -36 10 -69z"/>
</g>
</svg>
